<svg width="64" height="64" viewBox="0 0 64 64" fill="none" xmlns="http://www.w3.org/2000/svg">
<path d="M57.1951 22.987C59.8557 33.1904 50.5654 36.0709 45.5736 38.5816C53.1871 54.0505 44.6192 63.5684 38.2055 64.6241C31.7918 65.6798 25.2218 62.7075 24.0849 55.8004C21.7805 57.1932 11.8722 62.8779 6.1615 57.7372C1.40248 53.4533 4.51805 41.7924 8.7461 39.5763C5.7048 39.5702 -0.6155 35.0365 -1.01543 29.5283C-1.52444 22.5179 6.9779 19.5982 15.1153 19.779C13.6596 7.8571 21.4032 -0.51174 29.6218 0.16237C37.8404 0.83647 38.6403 11.8528 37.148 18.1792C43.3993 16.1368 54.9917 14.5375 57.1951 22.987Z" fill="url(#g)"/>
<path d="M24.3821 42.159C20.7683 40.1347 19.4798 35.5641 21.5041 31.9503C23.5284 28.3365 28.0474 26.1947 34.0475 28.6947C38.0474 30.3614 35.7594 37.1947 34.5908 39.281C32.5665 42.8948 27.9959 44.1833 24.3821 42.159Z" fill="white"/>
<defs>
<linearGradient id="g" x1="34" y1="65" x2="28" y2="-1" gradientUnits="userSpaceOnUse">
<stop stop-color="#30CD94"/>
<stop offset="1" stop-color="#0B9D6F"/>
</linearGradient>
</defs>
</svg>
